<?xml version="1.0" encoding="iso-8859-1"?>
<!-- Uploaded to: SVG Repo, www.svgrepo.com, Generator: SVG Repo Mixer Tools -->
<svg fill="#000000" height="800px" width="800px" version="1.1" id="Layer_1" xmlns="http://www.w3.org/2000/svg" xmlns:xlink="http://www.w3.org/1999/xlink" 
	 viewBox="0 0 500 500" xml:space="preserve">
<g>
	<g>
		<path d="M406.192,109.332H97.716c-2.212,0-4,1.792-4,4c0,2.208,1.788,4,4,4h308.476c2.212,0,4-1.792,4-4
			C410.192,111.124,408.404,109.332,406.192,109.332z"/>
	</g>
</g>
<g>
	<g>
		<path d="M160.192,148.38H97.716c-2.212,0-4,1.792-4,4s1.788,4,4,4h62.476c2.212,0,4-1.792,4-4S162.404,148.38,160.192,148.38z"/>
	</g>
</g>
<g>
	<g>
		<path d="M406.192,148.38h-214.76c-2.212,0-4,1.792-4,4s1.788,4,4,4h214.76c2.212,0,4-1.792,4-4S408.404,148.38,406.192,148.38z"/>
	</g>
</g>
<g>
	<g>
		<path d="M406.192,187.428h-62.476c-2.212,0-4,1.792-4,4s1.788,4,4,4h62.476c2.212,0,4-1.792,4-4S408.404,187.428,406.192,187.428z
			"/>
	</g>
</g>
<g>
	<g>
		<path d="M308.572,187.428H97.716c-2.212,0-4,1.792-4,4s1.788,4,4,4h210.856c2.208,0,4-1.792,4-4S310.784,187.428,308.572,187.428z
			"/>
	</g>
</g>
<g>
	<g>
		<path d="M406.192,226.476H97.716c-2.212,0-4,1.792-4,4c0,2.208,1.788,4,4,4h308.476c2.212,0,4-1.792,4-4
			C410.192,228.268,408.404,226.476,406.192,226.476z"/>
	</g>
</g>
<g>
	<g>
		<path d="M406.192,343.62H97.716c-2.212,0-4,1.792-4,4s1.788,4,4,4h308.476c2.212,0,4-1.792,4-4S408.404,343.62,406.192,343.62z"/>
	</g>
</g>
<g>
	<g>
		<path d="M160.192,265.524H97.716c-2.212,0-4,1.792-4,4s1.788,4,4,4h62.476c2.212,0,4-1.792,4-4S162.404,265.524,160.192,265.524z"
			/>
	</g>
</g>
<g>
	<g>
		<path d="M406.192,265.524h-214.76c-2.212,0-4,1.792-4,4s1.788,4,4,4h214.76c2.212,0,4-1.792,4-4S408.404,265.524,406.192,265.524z
			"/>
	</g>
</g>
<g>
	<g>
		<path d="M406.192,304.572h-62.476c-2.212,0-4,1.792-4,4s1.788,4,4,4h62.476c2.212,0,4-1.792,4-4S408.404,304.572,406.192,304.572z
			"/>
	</g>
</g>
<g>
	<g>
		<path d="M308.572,304.572H97.716c-2.212,0-4,1.792-4,4s1.788,4,4,4h210.856c2.208,0,4-1.792,4-4S310.784,304.572,308.572,304.572z
			"/>
	</g>
</g>
<g>
	<g>
		<path d="M160.192,382.668H97.716c-2.212,0-4,1.792-4,4s1.788,4,4,4h62.476c2.212,0,4-1.792,4-4S162.404,382.668,160.192,382.668z"
			/>
	</g>
</g>
<g>
	<g>
		<path d="M367.144,382.668H191.428c-2.212,0-4,1.792-4,4s1.788,4,4,4h175.716c2.212,0,4-1.792,4-4S369.356,382.668,367.144,382.668
			z"/>
	</g>
</g>
<g>
	<g>
		<path d="M466.66,0H37.144C17.356,0,0,16.436,0,35.176v429.516C0,483.5,17.356,500,37.144,500h331.908
			c1.068,0,2.096-0.428,2.852-1.192L498.852,369.9c0.732-0.748,1.148-1.756,1.148-2.808V35.176C500,15.124,485.668,0,466.66,0z
			 M492,365.456L367.376,492H37.144C21.616,492,8,479.24,8,464.692V35.176C8,20.7,21.616,8,37.144,8H466.66
			C481.104,8,492,19.68,492,35.176V365.456z"/>
	</g>
</g>
<g>
	<g>
		<path d="M445.236,363.144h-44.948c-19.788,0-37.144,16.436-37.144,35.176V496c0,2.208,1.788,4,4,4c2.212,0,4-1.792,4-4v-97.68
			c0-14.476,13.616-27.176,29.144-27.176h44.948c2.212,0,4-1.792,4-4S447.448,363.144,445.236,363.144z"/>
	</g>
</g>
</svg>